<?xml version="1.0" encoding="utf-8"?>
<!-- Generator: Adobe Illustrator 28.0.0, SVG Export Plug-In . SVG Version: 6.00 Build 0)  -->
<svg version="1.1" id="레이어_1" xmlns="http://www.w3.org/2000/svg" xmlns:xlink="http://www.w3.org/1999/xlink" x="0px"
	 y="0px" viewBox="0 0 448 512" style="enable-background:new 0 0 448 512;" xml:space="preserve">
<style type="text/css">
	.st0{fill:#FFFFFF;}
</style>
<path class="st0" d="M120.8,335.5c-5.9-0.4-12.6-0.8-20.2-1.3c-3.3,4.1-6.6,8.4-6.6,13.5c0,18.5,65.5,18.5,65.5-1.5
	c0-8.3-7.4-8.7-38.8-10.7H120.8z M128.6,217.6c-32.3,0-33.7,44.5-0.7,44.5C160.4,262.1,159.6,217.6,128.6,217.6z M384,32H64
	C28.7,32,0,60.7,0,96v320c0,35.3,28.7,64,64,64h320c35.3,0,64-28.7,64-64V96C448,60.7,419.3,32,384,32z M243.9,172.2
	c-14.5,0-22.9-8.4-22.9-22.9s8.4-22.3,22.9-22.3c14.7,0,23.1,7.8,23.1,22.3S258.6,172.2,243.9,172.2z M149.6,195h49.5v21.6
	l-23.4,1.8c4.6,5.8,9.4,14,9.4,25.7c0,48.7-57.2,47.2-74.2,42.4l-8.4,13.4c5,0.3,9.8,0.6,14.3,0.8c56.3,3.2,80.5,4.6,80.5,38.5
	c0,29.2-25.7,45.7-69.9,45.7c-46,0-63.5-11.6-63.5-31.7c0-11.4,5.1-17.5,14-25.9c-8.4-3.5-11.2-9.9-11.2-16.8
	c0-9.6,7.4-16.3,23-30.6l0.2-0.2c-12.4-6.1-21.8-19.3-21.8-38.1c0-51.6,56.6-53.3,81.6-46.8L149.6,195z M270.5,303.1l13,1.8V325
	h-72.4v-20.1c2.7-0.4,5-0.7,6.9-0.9c9.9-1.2,10.1-1.3,10.1-6v-74.7c0-4.4-0.9-4.7-10.1-7.8c-1.9-0.7-4.2-1.4-6.9-2.4l2.8-20.6h52.6
	V298c0,4.1,0.2,4.6,4.1,5.1H270.5z M377.1,292.7L384,315c-10.9,5.4-26.9,10.2-41.4,10.2c-30.2,0-41.7-12.2-41.7-40.9v-66.6
	c0-0.8,0-1.4-0.2-1.8c-0.8-1.2-4.2-0.7-19.6-0.7v-22.6c22.3-2.5,31.2-13.7,34-41.4h24.2c0,33.3-0.6,38,0.7,38.6c0.3,0.1,0.7,0,1.3,0
	h35.8v25.4h-37.8v60.7c0,0.2,0,0.5,0,0.9C339.1,283.1,338.4,307.2,377.1,292.7L377.1,292.7z"/>
</svg>
